<?xml version="1.0" standalone="no"?>
<!DOCTYPE svg PUBLIC "-//W3C//DTD SVG 20010904//EN"
 "http://www.w3.org/TR/2001/REC-SVG-20010904/DTD/svg10.dtd">
<svg version="1.0" xmlns="http://www.w3.org/2000/svg"
 width="500.000000pt" height="150.000000pt" viewBox="0 0 500.000000 150.000000"
 preserveAspectRatio="xMidYMid meet">

<g transform="translate(0.000000,150.000000) scale(0.100000,-0.100000)"
fill="#000000" stroke="none">
<path d="M2214 818 c-90 -173 -148 -261 -190 -289 -16 -10 -23 -19 -17 -19 22
0 95 73 135 134 36 55 168 307 168 320 0 27 -28 -16 -96 -146z"/>
<path d="M2420 836 c-69 -103 -170 -171 -170 -116 0 21 12 35 83 98 38 33 48
62 23 62 -22 0 -104 -98 -115 -137 -14 -48 -5 -66 28 -58 14 4 36 7 49 7 15 0
33 15 54 44 31 44 57 60 43 27 -4 -10 -10 -30 -13 -45 -3 -23 -1 -28 16 -28
11 0 30 9 43 20 29 23 18 26 -15 4 -40 -26 -41 2 -2 66 41 66 45 81 16 55 -25
-23 -26 -11 -2 23 30 43 34 52 23 52 -6 0 -33 -34 -61 -74z m-80 6 c0 -4 -10
-13 -22 -21 -23 -14 -23 -14 -4 8 20 22 26 25 26 13z"/>
<path d="M2585 868 c-15 -24 -46 -64 -67 -90 -22 -27 -36 -48 -32 -48 4 0 3
-5 -4 -12 -13 -13 -16 -28 -4 -28 4 0 21 20 37 45 32 48 52 59 40 23 -18 -61
-18 -68 4 -68 11 0 39 16 61 36 l40 36 -11 -31 c-17 -48 -3 -49 42 -5 l41 39
-27 -55 c-39 -79 -112 -178 -136 -185 -11 -4 -18 -9 -15 -12 10 -10 67 33 96
73 40 56 162 285 155 292 -3 3 -6 3 -8 1 -67 -85 -120 -149 -123 -149 -6 0 13
35 52 97 18 29 29 55 24 58 -5 3 -21 -14 -36 -37 -33 -54 -131 -151 -147 -145
-18 6 -9 35 24 83 35 51 38 75 7 48 -23 -20 -19 -10 14 38 20 29 22 38 9 38
-4 0 -21 -19 -36 -42z"/>
</g>
</svg>
