<?xml version="1.0" standalone="no"?>
<!DOCTYPE svg PUBLIC "-//W3C//DTD SVG 20010904//EN"
 "http://www.w3.org/TR/2001/REC-SVG-20010904/DTD/svg10.dtd">
<svg version="1.0" xmlns="http://www.w3.org/2000/svg"
 width="370.000000pt" height="269.000000pt" viewBox="0 0 370.000000 269.000000"
 preserveAspectRatio="xMidYMid meet">

<g transform="translate(0.000000,269.000000) scale(0.100000,-0.100000)"
fill="#000000" stroke="none">
<path d="M1589 2404 c-92 -57 -393 -212 -545 -279 -32 -14 -54 -30 -54 -39 0
-9 4 -16 10 -16 36 0 447 199 601 290 55 34 104 58 108 55 12 -13 2 -175 -20
-307 -11 -73 -38 -218 -59 -323 -165 -810 -232 -1079 -302 -1202 -16 -29 -35
-53 -43 -53 -7 0 -18 -7 -25 -16 -11 -12 -11 -18 2 -30 50 -51 117 92 202 432
48 196 169 742 240 1089 15 72 36 168 46 215 27 115 26 189 -1 224 -11 14 -28
26 -38 26 -10 0 -64 -29 -122 -66z"/>
<path d="M2675 1841 c-3 -6 -10 -47 -16 -93 -24 -195 -78 -400 -126 -475 -76
-121 -181 -157 -290 -100 -18 9 -42 17 -55 17 -30 0 -73 -29 -101 -68 -57 -79
-240 -290 -277 -320 -29 -22 -29 -23 -40 -2 -8 14 -6 45 5 117 23 147 42 204
117 355 96 195 157 392 137 446 -9 25 -13 26 -39 12 -30 -16 -87 -153 -105
-250 -20 -107 -82 -284 -131 -378 -51 -94 -58 -122 -34 -122 5 0 19 18 30 40
11 22 22 40 24 40 2 0 -3 -24 -11 -52 -7 -29 -16 -95 -20 -146 -5 -79 -4 -95
11 -111 15 -16 22 -18 48 -9 36 13 129 104 173 169 59 88 157 206 180 219 22
12 31 11 73 -8 71 -32 112 -36 179 -17 90 26 167 116 208 243 9 29 18 52 19
50 2 -2 -3 -73 -10 -158 -6 -85 -15 -202 -18 -260 -4 -58 -11 -150 -16 -205
-19 -219 -23 -312 -11 -320 17 -10 43 15 38 36 -7 25 42 665 88 1153 8 93 13
177 10 187 -7 20 -30 26 -40 10z m-746 -390 c-6 -18 -13 -30 -15 -28 -2 2 1
18 7 36 6 18 13 30 15 28 2 -2 -1 -18 -7 -36z"/>
</g>
</svg>
